<mxfile host="app.diagrams.net" modified="2024-05-24T10:18:24.945Z" agent="Mozilla/5.0 (Windows NT 10.0; Win64; x64) AppleWebKit/537.36 (KHTML, like Gecko) Chrome/124.0.0.0 Safari/537.36" etag="ey7EbrfJVjaN5_okZs_z" version="24.3.0" type="github">
  <diagram name="Page-1" id="crj739eoRaCTwiRaOJSt">
    <mxGraphModel dx="1820" dy="1699" grid="1" gridSize="10" guides="1" tooltips="1" connect="1" arrows="1" fold="1" page="1" pageScale="1" pageWidth="827" pageHeight="1169" math="0" shadow="0">
      <root>
        <mxCell id="0" />
        <mxCell id="1" parent="0" />
        <mxCell id="T2Sw0P_CuasJY1bfyrww-326" value="" style="rounded=1;whiteSpace=wrap;html=1;arcSize=2;" vertex="1" parent="1">
          <mxGeometry x="-780" y="-1130" width="600" height="1250" as="geometry" />
        </mxCell>
        <mxCell id="T2Sw0P_CuasJY1bfyrww-171" value="Main.py" style="text;html=1;align=center;verticalAlign=middle;whiteSpace=wrap;rounded=0;container=0;" vertex="1" parent="1">
          <mxGeometry x="-771.2439130434783" y="-1130" width="65.73913043478261" height="40" as="geometry" />
        </mxCell>
        <mxCell id="T2Sw0P_CuasJY1bfyrww-172" value="&lt;b&gt;Complete&lt;br&gt;SystemRun.py&lt;/b&gt;" style="rounded=1;whiteSpace=wrap;html=1;fillColor=#ffe6cc;strokeColor=#d79b00;container=0;" vertex="1" parent="1">
          <mxGeometry x="-771.24" y="-947.5" width="115.04" height="980" as="geometry" />
        </mxCell>
        <mxCell id="T2Sw0P_CuasJY1bfyrww-315" style="edgeStyle=orthogonalEdgeStyle;rounded=0;orthogonalLoop=1;jettySize=auto;html=1;exitX=0.5;exitY=1;exitDx=0;exitDy=0;entryX=0.5;entryY=0;entryDx=0;entryDy=0;endArrow=openThin;endFill=0;" edge="1" parent="1" source="T2Sw0P_CuasJY1bfyrww-173" target="T2Sw0P_CuasJY1bfyrww-174">
          <mxGeometry relative="1" as="geometry" />
        </mxCell>
        <mxCell id="T2Sw0P_CuasJY1bfyrww-173" value="&lt;b&gt;Logger.py&lt;/b&gt;" style="rounded=1;whiteSpace=wrap;html=1;fillColor=#ffe6cc;strokeColor=#d79b00;container=0;" vertex="1" parent="1">
          <mxGeometry x="-771.2391304347826" y="-1100" width="115.04347826086959" height="60" as="geometry" />
        </mxCell>
        <mxCell id="T2Sw0P_CuasJY1bfyrww-316" style="edgeStyle=orthogonalEdgeStyle;rounded=0;orthogonalLoop=1;jettySize=auto;html=1;exitX=0.5;exitY=1;exitDx=0;exitDy=0;entryX=0.5;entryY=0;entryDx=0;entryDy=0;endArrow=classicThin;endFill=1;" edge="1" parent="1" source="T2Sw0P_CuasJY1bfyrww-174" target="T2Sw0P_CuasJY1bfyrww-172">
          <mxGeometry relative="1" as="geometry" />
        </mxCell>
        <mxCell id="T2Sw0P_CuasJY1bfyrww-174" value="&lt;b&gt;Connection.py&lt;/b&gt;" style="rounded=1;whiteSpace=wrap;html=1;fillColor=#ffe6cc;strokeColor=#d79b00;container=0;" vertex="1" parent="1">
          <mxGeometry x="-771.2391304347826" y="-1025" width="115.04347826086959" height="60" as="geometry" />
        </mxCell>
        <mxCell id="T2Sw0P_CuasJY1bfyrww-175" value="analyzerInputBackup_ProductionCode.py" style="rounded=0;whiteSpace=wrap;html=1;fillColor=#d5e8d4;strokeColor=#82b366;container=0;" vertex="1" parent="1">
          <mxGeometry x="-600" y="-1100" width="400" height="40" as="geometry" />
        </mxCell>
        <mxCell id="T2Sw0P_CuasJY1bfyrww-176" value="" style="endArrow=classic;html=1;rounded=0;exitX=1.007;exitY=0.033;exitDx=0;exitDy=0;exitPerimeter=0;startArrow=classic;startFill=1;entryX=0;entryY=0.5;entryDx=0;entryDy=0;" edge="1" parent="1" source="T2Sw0P_CuasJY1bfyrww-172">
          <mxGeometry width="50" height="50" relative="1" as="geometry">
            <mxPoint x="-656.1960094517959" y="-890" as="sourcePoint" />
            <mxPoint x="-598.6739130434783" y="-1060" as="targetPoint" />
            <Array as="points">
              <mxPoint x="-631.5434782608695" y="-916" />
              <mxPoint x="-630" y="-1080" />
            </Array>
          </mxGeometry>
        </mxCell>
        <mxCell id="T2Sw0P_CuasJY1bfyrww-177" value="" style="rounded=0;whiteSpace=wrap;html=1;fillColor=#d5e8d4;strokeColor=#82b366;container=0;" vertex="1" parent="1">
          <mxGeometry x="-598.67" y="-1050" width="398.67" height="210" as="geometry" />
        </mxCell>
        <mxCell id="T2Sw0P_CuasJY1bfyrww-178" value="Inventory Consolidation" style="text;html=1;align=center;verticalAlign=middle;whiteSpace=wrap;rounded=0;container=0;" vertex="1" parent="1">
          <mxGeometry x="-598.6739130434783" y="-1050" width="131.47826086956522" height="30" as="geometry" />
        </mxCell>
        <mxCell id="T2Sw0P_CuasJY1bfyrww-179" style="edgeStyle=orthogonalEdgeStyle;rounded=0;orthogonalLoop=1;jettySize=auto;html=1;exitX=0.5;exitY=0;exitDx=0;exitDy=0;startArrow=classic;startFill=1;" edge="1" parent="1" source="T2Sw0P_CuasJY1bfyrww-183" target="T2Sw0P_CuasJY1bfyrww-184">
          <mxGeometry relative="1" as="geometry" />
        </mxCell>
        <mxCell id="T2Sw0P_CuasJY1bfyrww-181" style="edgeStyle=orthogonalEdgeStyle;rounded=0;orthogonalLoop=1;jettySize=auto;html=1;exitX=1;exitY=0.25;exitDx=0;exitDy=0;entryX=0.25;entryY=1;entryDx=0;entryDy=0;startArrow=classic;startFill=1;" edge="1" parent="1" source="T2Sw0P_CuasJY1bfyrww-183" target="T2Sw0P_CuasJY1bfyrww-190">
          <mxGeometry relative="1" as="geometry">
            <Array as="points">
              <mxPoint x="-451" y="-895" />
              <mxPoint x="-451" y="-930" />
              <mxPoint x="-342" y="-930" />
            </Array>
          </mxGeometry>
        </mxCell>
        <mxCell id="T2Sw0P_CuasJY1bfyrww-180" style="edgeStyle=orthogonalEdgeStyle;rounded=0;orthogonalLoop=1;jettySize=auto;html=1;exitX=1;exitY=0.75;exitDx=0;exitDy=0;startArrow=classic;startFill=1;" edge="1" parent="1" source="T2Sw0P_CuasJY1bfyrww-183" target="T2Sw0P_CuasJY1bfyrww-193">
          <mxGeometry relative="1" as="geometry" />
        </mxCell>
        <mxCell id="T2Sw0P_CuasJY1bfyrww-182" style="edgeStyle=orthogonalEdgeStyle;rounded=0;orthogonalLoop=1;jettySize=auto;html=1;exitX=1;exitY=1;exitDx=0;exitDy=0;entryX=0;entryY=0.75;entryDx=0;entryDy=0;startArrow=classic;startFill=1;" edge="1" parent="1" source="T2Sw0P_CuasJY1bfyrww-183" target="T2Sw0P_CuasJY1bfyrww-194">
          <mxGeometry relative="1" as="geometry">
            <Array as="points">
              <mxPoint x="-413.7826086956521" y="-850" />
              <mxPoint x="-413.7826086956521" y="-862" />
            </Array>
          </mxGeometry>
        </mxCell>
        <mxCell id="T2Sw0P_CuasJY1bfyrww-183" value="inventory&lt;div&gt;Consolidation.py&lt;/div&gt;" style="rounded=0;whiteSpace=wrap;html=1;container=0;" vertex="1" parent="1">
          <mxGeometry x="-590.4565217391304" y="-910" width="115.04347826086959" height="60" as="geometry" />
        </mxCell>
        <mxCell id="T2Sw0P_CuasJY1bfyrww-184" value="saddle_&lt;br&gt;creak_&lt;br&gt;west.py" style="rounded=0;whiteSpace=wrap;html=1;container=0;" vertex="1" parent="1">
          <mxGeometry x="-590.4565217391304" y="-1020" width="65.73913043478261" height="60" as="geometry" />
        </mxCell>
        <mxCell id="T2Sw0P_CuasJY1bfyrww-185" style="edgeStyle=orthogonalEdgeStyle;rounded=0;orthogonalLoop=1;jettySize=auto;html=1;exitX=1;exitY=0.25;exitDx=0;exitDy=0;entryX=0;entryY=0.25;entryDx=0;entryDy=0;" edge="1" parent="1" source="T2Sw0P_CuasJY1bfyrww-186" target="T2Sw0P_CuasJY1bfyrww-188">
          <mxGeometry relative="1" as="geometry">
            <mxPoint x="-450.658260869565" y="-1005" as="sourcePoint" />
          </mxGeometry>
        </mxCell>
        <mxCell id="T2Sw0P_CuasJY1bfyrww-186" value="api_&lt;br&gt;inventory.py" style="rounded=0;whiteSpace=wrap;html=1;container=0;" vertex="1" parent="1">
          <mxGeometry x="-516.5" y="-1020" width="66.5" height="60" as="geometry" />
        </mxCell>
        <mxCell id="T2Sw0P_CuasJY1bfyrww-187" style="edgeStyle=orthogonalEdgeStyle;rounded=0;orthogonalLoop=1;jettySize=auto;html=1;exitX=0;exitY=0.75;exitDx=0;exitDy=0;entryX=1;entryY=0.75;entryDx=0;entryDy=0;" edge="1" parent="1" source="T2Sw0P_CuasJY1bfyrww-188" target="T2Sw0P_CuasJY1bfyrww-186">
          <mxGeometry relative="1" as="geometry">
            <mxPoint x="-450.658260869565" y="-975" as="targetPoint" />
          </mxGeometry>
        </mxCell>
        <mxCell id="T2Sw0P_CuasJY1bfyrww-188" value="cargo_cove&lt;br&gt;_token&lt;br&gt;_refresh.py" style="rounded=0;whiteSpace=wrap;html=1;container=0;" vertex="1" parent="1">
          <mxGeometry x="-426.01" y="-1020" width="66.01" height="60" as="geometry" />
        </mxCell>
        <mxCell id="T2Sw0P_CuasJY1bfyrww-189" style="edgeStyle=orthogonalEdgeStyle;rounded=0;orthogonalLoop=1;jettySize=auto;html=1;exitX=0.75;exitY=0;exitDx=0;exitDy=0;entryX=0.41;entryY=1.005;entryDx=0;entryDy=0;entryPerimeter=0;startArrow=classic;startFill=1;" edge="1" parent="1" source="T2Sw0P_CuasJY1bfyrww-183" target="T2Sw0P_CuasJY1bfyrww-186">
          <mxGeometry relative="1" as="geometry" />
        </mxCell>
        <mxCell id="T2Sw0P_CuasJY1bfyrww-190" value="senyx&lt;br&gt;_browser&lt;br&gt;_scrapping.py" style="rounded=0;whiteSpace=wrap;html=1;container=0;" vertex="1" parent="1">
          <mxGeometry x="-354.21" y="-1020" width="80.27" height="60" as="geometry" />
        </mxCell>
        <mxCell id="T2Sw0P_CuasJY1bfyrww-191" value="saddle&lt;br&gt;_creak&lt;br&gt;_east.py" style="rounded=0;whiteSpace=wrap;html=1;container=0;" vertex="1" parent="1">
          <mxGeometry x="-270" y="-1020" width="60" height="60" as="geometry" />
        </mxCell>
        <mxCell id="T2Sw0P_CuasJY1bfyrww-192" value="" style="endArrow=classic;startArrow=classic;html=1;rounded=0;exitX=1;exitY=0.5;exitDx=0;exitDy=0;entryX=0.25;entryY=1;entryDx=0;entryDy=0;" edge="1" parent="1" source="T2Sw0P_CuasJY1bfyrww-183" target="T2Sw0P_CuasJY1bfyrww-191">
          <mxGeometry width="50" height="50" relative="1" as="geometry">
            <mxPoint x="-508.2826086956522" y="-980" as="sourcePoint" />
            <mxPoint x="-467.195652173913" y="-1030" as="targetPoint" />
            <Array as="points">
              <mxPoint x="-401.4565217391303" y="-880" />
              <mxPoint x="-401.4565217391303" y="-920" />
              <mxPoint x="-335.7173913043478" y="-920" />
              <mxPoint x="-335.7173913043478" y="-940" />
              <mxPoint x="-274.0869565217391" y="-940" />
            </Array>
          </mxGeometry>
        </mxCell>
        <mxCell id="T2Sw0P_CuasJY1bfyrww-193" value="convert_to&lt;br&gt;_dst&lt;br&gt;_time.py" style="rounded=0;whiteSpace=wrap;html=1;container=0;" vertex="1" parent="1">
          <mxGeometry x="-270.79999999999995" y="-940" width="65.73913043478261" height="50" as="geometry" />
        </mxCell>
        <mxCell id="T2Sw0P_CuasJY1bfyrww-194" value="send&lt;br&gt;_email&lt;br&gt;_notification.py" style="rounded=0;whiteSpace=wrap;html=1;container=0;" vertex="1" parent="1">
          <mxGeometry x="-362.15" y="-900" width="82.15" height="50" as="geometry" />
        </mxCell>
        <mxCell id="T2Sw0P_CuasJY1bfyrww-195" value="" style="endArrow=classic;startArrow=classic;html=1;rounded=0;" edge="1" parent="1">
          <mxGeometry width="50" height="50" relative="1" as="geometry">
            <mxPoint x="-656.195652173913" y="-850" as="sourcePoint" />
            <mxPoint x="-598.6739130434783" y="-850" as="targetPoint" />
          </mxGeometry>
        </mxCell>
        <mxCell id="T2Sw0P_CuasJY1bfyrww-196" value="" style="rounded=0;whiteSpace=wrap;html=1;fillColor=#d5e8d4;strokeColor=#82b366;container=0;" vertex="1" parent="1">
          <mxGeometry x="-600" y="-830" width="400" height="200" as="geometry" />
        </mxCell>
        <mxCell id="T2Sw0P_CuasJY1bfyrww-197" value="WMS Receipt consolidation" style="text;html=1;align=center;verticalAlign=middle;whiteSpace=wrap;rounded=0;container=0;" vertex="1" parent="1">
          <mxGeometry x="-600" y="-830" width="166.62" height="30" as="geometry" />
        </mxCell>
        <mxCell id="T2Sw0P_CuasJY1bfyrww-198" style="edgeStyle=orthogonalEdgeStyle;rounded=0;orthogonalLoop=1;jettySize=auto;html=1;exitX=0.5;exitY=0;exitDx=0;exitDy=0;entryX=0.5;entryY=1;entryDx=0;entryDy=0;startArrow=classicThin;startFill=1;endArrow=classicThin;endFill=1;" edge="1" parent="1" source="T2Sw0P_CuasJY1bfyrww-202" target="T2Sw0P_CuasJY1bfyrww-203">
          <mxGeometry relative="1" as="geometry" />
        </mxCell>
        <mxCell id="T2Sw0P_CuasJY1bfyrww-199" style="edgeStyle=orthogonalEdgeStyle;rounded=0;orthogonalLoop=1;jettySize=auto;html=1;exitX=1;exitY=0.25;exitDx=0;exitDy=0;entryX=0.25;entryY=1;entryDx=0;entryDy=0;startArrow=classic;startFill=1;" edge="1" parent="1" source="T2Sw0P_CuasJY1bfyrww-202" target="T2Sw0P_CuasJY1bfyrww-204">
          <mxGeometry relative="1" as="geometry" />
        </mxCell>
        <mxCell id="T2Sw0P_CuasJY1bfyrww-200" style="edgeStyle=orthogonalEdgeStyle;rounded=0;orthogonalLoop=1;jettySize=auto;html=1;exitX=1;exitY=0.5;exitDx=0;exitDy=0;entryX=0;entryY=0.75;entryDx=0;entryDy=0;startArrow=classic;startFill=1;" edge="1" parent="1" source="T2Sw0P_CuasJY1bfyrww-202" target="T2Sw0P_CuasJY1bfyrww-205">
          <mxGeometry relative="1" as="geometry" />
        </mxCell>
        <mxCell id="T2Sw0P_CuasJY1bfyrww-201" style="edgeStyle=orthogonalEdgeStyle;rounded=0;orthogonalLoop=1;jettySize=auto;html=1;exitX=1;exitY=0.75;exitDx=0;exitDy=0;entryX=0;entryY=0.75;entryDx=0;entryDy=0;startArrow=classic;startFill=1;" edge="1" parent="1" source="T2Sw0P_CuasJY1bfyrww-202" target="T2Sw0P_CuasJY1bfyrww-206">
          <mxGeometry relative="1" as="geometry" />
        </mxCell>
        <mxCell id="T2Sw0P_CuasJY1bfyrww-202" value="wms&lt;br&gt;_receipt&lt;br&gt;_consolidation.py" style="rounded=0;whiteSpace=wrap;html=1;container=0;" vertex="1" parent="1">
          <mxGeometry x="-588.4021739130434" y="-700" width="123.2608695652174" height="60" as="geometry" />
        </mxCell>
        <mxCell id="T2Sw0P_CuasJY1bfyrww-203" value="&lt;p style=&quot;text-indent:-.25in;mso-list:l0 level1 lfo1&quot; class=&quot;MsoListParagraph&quot;&gt;&lt;span lang=&quot;EN-IN&quot;&gt;wms_saddle&lt;br&gt;&lt;/span&gt;&lt;span style=&quot;background-color: initial; text-indent: -0.25in;&quot;&gt;_east_receipts&lt;br&gt;&lt;/span&gt;&lt;span style=&quot;background-color: initial; text-indent: -0.25in;&quot;&gt;_scrapping.py&lt;/span&gt;&lt;/p&gt;" style="rounded=0;whiteSpace=wrap;html=1;container=0;" vertex="1" parent="1">
          <mxGeometry x="-580" y="-795" width="94.32" height="70" as="geometry" />
        </mxCell>
        <mxCell id="T2Sw0P_CuasJY1bfyrww-204" value="&lt;p style=&quot;text-indent:-.25in;mso-list:l0 level1 lfo1&quot; class=&quot;MsoListParagraph&quot;&gt;&lt;span lang=&quot;EN-IN&quot;&gt;wms_saddle&lt;br&gt;_west_receipts&lt;br&gt;_scrapping.py&lt;/span&gt;&lt;/p&gt;" style="rounded=0;whiteSpace=wrap;html=1;container=0;" vertex="1" parent="1">
          <mxGeometry x="-452.8152173913043" y="-790" width="98.60869565217392" height="60" as="geometry" />
        </mxCell>
        <mxCell id="T2Sw0P_CuasJY1bfyrww-205" value="&lt;p style=&quot;text-indent:-.25in;mso-list:l0 level1 lfo1&quot; class=&quot;MsoListParagraph&quot;&gt;&lt;span lang=&quot;EN-IN&quot;&gt;wms_api_&lt;br&gt;shiphero&lt;br&gt;_receipts.py&lt;/span&gt;&lt;/p&gt;" style="rounded=0;whiteSpace=wrap;html=1;align=center;container=0;" vertex="1" parent="1">
          <mxGeometry x="-333.66304347826076" y="-770" width="98.60869565217392" height="60" as="geometry" />
        </mxCell>
        <mxCell id="T2Sw0P_CuasJY1bfyrww-206" value="&lt;p style=&quot;text-indent:-.25in;mso-list:l0 level1 lfo1&quot; class=&quot;MsoListParagraph&quot;&gt;&lt;span lang=&quot;EN-IN&quot;&gt;wms_api&lt;br&gt;_3pl_receipts.py&lt;/span&gt;&lt;/p&gt;" style="rounded=0;whiteSpace=wrap;html=1;container=0;" vertex="1" parent="1">
          <mxGeometry x="-333.66304347826076" y="-700" width="98.60869565217392" height="60" as="geometry" />
        </mxCell>
        <mxCell id="T2Sw0P_CuasJY1bfyrww-207" value="" style="rounded=0;whiteSpace=wrap;html=1;fillColor=#d5e8d4;strokeColor=#82b366;container=0;" vertex="1" parent="1">
          <mxGeometry x="-600" y="-620" width="400" height="140" as="geometry" />
        </mxCell>
        <mxCell id="T2Sw0P_CuasJY1bfyrww-208" value="Conainer Consolidation" style="text;html=1;align=center;verticalAlign=middle;whiteSpace=wrap;rounded=0;container=0;" vertex="1" parent="1">
          <mxGeometry x="-598.68" y="-620" width="131.48" height="19" as="geometry" />
        </mxCell>
        <mxCell id="T2Sw0P_CuasJY1bfyrww-209" value="Container&lt;div&gt;Adjustment.py&lt;/div&gt;" style="rounded=0;whiteSpace=wrap;html=1;container=0;" vertex="1" parent="1">
          <mxGeometry x="-572.8986956521738" y="-601" width="110.93478260869567" height="50" as="geometry" />
        </mxCell>
        <mxCell id="T2Sw0P_CuasJY1bfyrww-210" style="edgeStyle=orthogonalEdgeStyle;rounded=0;orthogonalLoop=1;jettySize=auto;html=1;exitX=1;exitY=0.5;exitDx=0;exitDy=0;entryX=0;entryY=0.5;entryDx=0;entryDy=0;" edge="1" parent="1" source="T2Sw0P_CuasJY1bfyrww-211" target="T2Sw0P_CuasJY1bfyrww-214">
          <mxGeometry relative="1" as="geometry" />
        </mxCell>
        <mxCell id="T2Sw0P_CuasJY1bfyrww-211" value="Netsuite&lt;div&gt;Consolidate.py&lt;/div&gt;" style="rounded=0;whiteSpace=wrap;html=1;container=0;" vertex="1" parent="1">
          <mxGeometry x="-574.951304347826" y="-531" width="102.71739130434786" height="40" as="geometry" />
        </mxCell>
        <mxCell id="T2Sw0P_CuasJY1bfyrww-212" style="edgeStyle=orthogonalEdgeStyle;rounded=0;orthogonalLoop=1;jettySize=auto;html=1;entryX=1;entryY=0.25;entryDx=0;entryDy=0;" edge="1" parent="1" source="T2Sw0P_CuasJY1bfyrww-213" target="T2Sw0P_CuasJY1bfyrww-211">
          <mxGeometry relative="1" as="geometry">
            <Array as="points">
              <mxPoint x="-382.2552173913043" y="-541" />
              <mxPoint x="-445.52913043478264" y="-541" />
              <mxPoint x="-445.52913043478264" y="-521" />
            </Array>
          </mxGeometry>
        </mxCell>
        <mxCell id="T2Sw0P_CuasJY1bfyrww-213" value="NetsuitePOs.py" style="rounded=0;whiteSpace=wrap;html=1;container=0;" vertex="1" parent="1">
          <mxGeometry x="-441.4230434782609" y="-601" width="102.71739130434786" height="50" as="geometry" />
        </mxCell>
        <mxCell id="T2Sw0P_CuasJY1bfyrww-214" value="containerConsolidation&lt;br&gt;FromSQLCode.py" style="rounded=0;whiteSpace=wrap;html=1;container=0;" vertex="1" parent="1">
          <mxGeometry x="-379.78999999999996" y="-536" width="160.23913043478262" height="50" as="geometry" />
        </mxCell>
        <mxCell id="T2Sw0P_CuasJY1bfyrww-215" style="edgeStyle=orthogonalEdgeStyle;rounded=0;orthogonalLoop=1;jettySize=auto;html=1;exitX=0.5;exitY=1;exitDx=0;exitDy=0;entryX=0.429;entryY=0.033;entryDx=0;entryDy=0;entryPerimeter=0;" edge="1" parent="1" source="T2Sw0P_CuasJY1bfyrww-209" target="T2Sw0P_CuasJY1bfyrww-211">
          <mxGeometry relative="1" as="geometry" />
        </mxCell>
        <mxCell id="T2Sw0P_CuasJY1bfyrww-216" style="edgeStyle=orthogonalEdgeStyle;rounded=0;orthogonalLoop=1;jettySize=auto;html=1;exitX=0;exitY=0.5;exitDx=0;exitDy=0;entryX=1;entryY=0.5;entryDx=0;entryDy=0;" edge="1" parent="1" source="T2Sw0P_CuasJY1bfyrww-217" target="T2Sw0P_CuasJY1bfyrww-213">
          <mxGeometry relative="1" as="geometry" />
        </mxCell>
        <mxCell id="T2Sw0P_CuasJY1bfyrww-217" value="Expeditor&lt;br&gt;EmailReader.py" style="rounded=0;whiteSpace=wrap;html=1;container=0;" vertex="1" parent="1">
          <mxGeometry x="-316.1034782608695" y="-601" width="98.60869565217392" height="50" as="geometry" />
        </mxCell>
        <mxCell id="T2Sw0P_CuasJY1bfyrww-218" style="edgeStyle=orthogonalEdgeStyle;rounded=0;orthogonalLoop=1;jettySize=auto;html=1;entryX=-0.004;entryY=0.33;entryDx=0;entryDy=0;entryPerimeter=0;" edge="1" parent="1" source="T2Sw0P_CuasJY1bfyrww-172" target="T2Sw0P_CuasJY1bfyrww-207">
          <mxGeometry relative="1" as="geometry" />
        </mxCell>
        <mxCell id="T2Sw0P_CuasJY1bfyrww-219" value="" style="rounded=0;whiteSpace=wrap;html=1;fillColor=#d5e8d4;strokeColor=#82b366;container=0;" vertex="1" parent="1">
          <mxGeometry x="-600" y="-470" width="200" height="130" as="geometry" />
        </mxCell>
        <mxCell id="T2Sw0P_CuasJY1bfyrww-220" value="Replenishment Plan" style="text;html=1;align=center;verticalAlign=middle;whiteSpace=wrap;rounded=0;container=0;" vertex="1" parent="1">
          <mxGeometry x="-598.67" y="-470" width="123.26" height="25" as="geometry" />
        </mxCell>
        <mxCell id="T2Sw0P_CuasJY1bfyrww-221" value="Replenishment&lt;br&gt;Planner&lt;br&gt;Production&lt;br&gt;Code.py" style="rounded=0;whiteSpace=wrap;html=1;container=0;" vertex="1" parent="1">
          <mxGeometry x="-493.59" y="-435" width="90" height="65" as="geometry" />
        </mxCell>
        <mxCell id="T2Sw0P_CuasJY1bfyrww-223" value="" style="rounded=0;whiteSpace=wrap;html=1;fillColor=#d5e8d4;strokeColor=#82b366;container=0;" vertex="1" parent="1">
          <mxGeometry x="-599.3299999999999" y="-320" width="198.67" height="90" as="geometry" />
        </mxCell>
        <mxCell id="T2Sw0P_CuasJY1bfyrww-222" style="edgeStyle=orthogonalEdgeStyle;rounded=0;orthogonalLoop=1;jettySize=auto;html=1;entryX=1.013;entryY=0.59;entryDx=0;entryDy=0;entryPerimeter=0;" edge="1" parent="1" source="T2Sw0P_CuasJY1bfyrww-219" target="T2Sw0P_CuasJY1bfyrww-172">
          <mxGeometry relative="1" as="geometry" />
        </mxCell>
        <mxCell id="T2Sw0P_CuasJY1bfyrww-224" style="edgeStyle=orthogonalEdgeStyle;rounded=0;orthogonalLoop=1;jettySize=auto;html=1;exitX=0;exitY=0.5;exitDx=0;exitDy=0;entryX=1;entryY=0.688;entryDx=0;entryDy=0;entryPerimeter=0;" edge="1" parent="1" source="T2Sw0P_CuasJY1bfyrww-223" target="T2Sw0P_CuasJY1bfyrww-172">
          <mxGeometry relative="1" as="geometry" />
        </mxCell>
        <mxCell id="T2Sw0P_CuasJY1bfyrww-225" value="Retail Actual Conversion" style="text;html=1;align=center;verticalAlign=middle;whiteSpace=wrap;rounded=0;container=0;" vertex="1" parent="1">
          <mxGeometry x="-599.33" y="-320" width="148.67" height="20" as="geometry" />
        </mxCell>
        <mxCell id="T2Sw0P_CuasJY1bfyrww-226" value="RetailActual&lt;div&gt;ConversionProduction.py&lt;/div&gt;" style="rounded=0;whiteSpace=wrap;html=1;container=0;" vertex="1" parent="1">
          <mxGeometry x="-587.23" y="-280" width="164.57" height="40" as="geometry" />
        </mxCell>
        <mxCell id="T2Sw0P_CuasJY1bfyrww-317" style="edgeStyle=orthogonalEdgeStyle;rounded=0;orthogonalLoop=1;jettySize=auto;html=1;exitX=0.5;exitY=0;exitDx=0;exitDy=0;entryX=0.5;entryY=1;entryDx=0;entryDy=0;endArrow=classicThin;endFill=1;" edge="1" parent="1" source="T2Sw0P_CuasJY1bfyrww-235" target="T2Sw0P_CuasJY1bfyrww-172">
          <mxGeometry relative="1" as="geometry" />
        </mxCell>
        <mxCell id="T2Sw0P_CuasJY1bfyrww-235" value="sendEmail&lt;div&gt;Notification.py&lt;/div&gt;" style="rounded=1;whiteSpace=wrap;html=1;fillColor=#ffe6cc;strokeColor=#d79b00;container=0;" vertex="1" parent="1">
          <mxGeometry x="-771.2391304347826" y="50" width="115.04347826086959" height="60" as="geometry" />
        </mxCell>
        <mxCell id="T2Sw0P_CuasJY1bfyrww-251" value="" style="group" vertex="1" connectable="0" parent="1">
          <mxGeometry x="-390.65999999999997" y="-320" width="190" height="90" as="geometry" />
        </mxCell>
        <mxCell id="T2Sw0P_CuasJY1bfyrww-227" value="" style="rounded=0;whiteSpace=wrap;html=1;fillColor=#d5e8d4;strokeColor=#82b366;container=0;" vertex="1" parent="T2Sw0P_CuasJY1bfyrww-251">
          <mxGeometry width="190" height="90" as="geometry" />
        </mxCell>
        <mxCell id="T2Sw0P_CuasJY1bfyrww-229" value="DTC Actual Conversion" style="text;html=1;align=center;verticalAlign=middle;whiteSpace=wrap;rounded=0;container=0;" vertex="1" parent="T2Sw0P_CuasJY1bfyrww-251">
          <mxGeometry width="131.48" height="20" as="geometry" />
        </mxCell>
        <mxCell id="T2Sw0P_CuasJY1bfyrww-230" value="DTCActual&lt;br&gt;ConversionProductionCode.py" style="rounded=0;whiteSpace=wrap;html=1;container=0;" vertex="1" parent="T2Sw0P_CuasJY1bfyrww-251">
          <mxGeometry x="10" y="30" width="170" height="50" as="geometry" />
        </mxCell>
        <mxCell id="T2Sw0P_CuasJY1bfyrww-239" style="edgeStyle=orthogonalEdgeStyle;rounded=0;orthogonalLoop=1;jettySize=auto;html=1;exitX=0;exitY=0.5;exitDx=0;exitDy=0;entryX=1.036;entryY=0.24;entryDx=0;entryDy=0;entryPerimeter=0;" edge="1" parent="1" source="T2Sw0P_CuasJY1bfyrww-196" target="T2Sw0P_CuasJY1bfyrww-172">
          <mxGeometry relative="1" as="geometry" />
        </mxCell>
        <mxCell id="T2Sw0P_CuasJY1bfyrww-252" value="" style="group" vertex="1" connectable="0" parent="1">
          <mxGeometry x="-598.6700000000001" y="-110" width="401.09" height="121" as="geometry" />
        </mxCell>
        <mxCell id="T2Sw0P_CuasJY1bfyrww-238" value="" style="rounded=0;whiteSpace=wrap;html=1;fillColor=#d5e8d4;strokeColor=#82b366;container=0;" vertex="1" parent="T2Sw0P_CuasJY1bfyrww-252">
          <mxGeometry width="400" height="120" as="geometry" />
        </mxCell>
        <mxCell id="T2Sw0P_CuasJY1bfyrww-242" value="forecast sourcing" style="text;html=1;align=center;verticalAlign=middle;whiteSpace=wrap;rounded=0;container=0;" vertex="1" parent="T2Sw0P_CuasJY1bfyrww-252">
          <mxGeometry width="110" height="20" as="geometry" />
        </mxCell>
        <mxCell id="T2Sw0P_CuasJY1bfyrww-314" style="edgeStyle=orthogonalEdgeStyle;rounded=0;orthogonalLoop=1;jettySize=auto;html=1;exitX=1;exitY=0.5;exitDx=0;exitDy=0;entryX=0;entryY=0.5;entryDx=0;entryDy=0;" edge="1" parent="T2Sw0P_CuasJY1bfyrww-252" source="T2Sw0P_CuasJY1bfyrww-256" target="T2Sw0P_CuasJY1bfyrww-313">
          <mxGeometry relative="1" as="geometry" />
        </mxCell>
        <mxCell id="T2Sw0P_CuasJY1bfyrww-256" value="Forecast_&lt;br&gt;Sourcing.py" style="rounded=0;whiteSpace=wrap;html=1;" vertex="1" parent="T2Sw0P_CuasJY1bfyrww-252">
          <mxGeometry x="131.09" y="28.5" width="78.91" height="62.5" as="geometry" />
        </mxCell>
        <mxCell id="T2Sw0P_CuasJY1bfyrww-308" style="edgeStyle=orthogonalEdgeStyle;rounded=0;orthogonalLoop=1;jettySize=auto;html=1;exitX=1;exitY=0.5;exitDx=0;exitDy=0;entryX=0;entryY=0.5;entryDx=0;entryDy=0;" edge="1" parent="T2Sw0P_CuasJY1bfyrww-252" source="T2Sw0P_CuasJY1bfyrww-302" target="T2Sw0P_CuasJY1bfyrww-256">
          <mxGeometry relative="1" as="geometry" />
        </mxCell>
        <mxCell id="T2Sw0P_CuasJY1bfyrww-302" value="" style="rhombus;whiteSpace=wrap;html=1;container=0;" vertex="1" parent="T2Sw0P_CuasJY1bfyrww-252">
          <mxGeometry x="31.091999999999985" y="45" width="36.25600000000001" height="30" as="geometry" />
        </mxCell>
        <mxCell id="T2Sw0P_CuasJY1bfyrww-309" value="Is new file ?" style="text;html=1;align=center;verticalAlign=middle;whiteSpace=wrap;rounded=0;" vertex="1" parent="T2Sw0P_CuasJY1bfyrww-252">
          <mxGeometry x="14.829999999999998" y="25" width="71.17" height="20" as="geometry" />
        </mxCell>
        <mxCell id="T2Sw0P_CuasJY1bfyrww-310" value="Yes" style="text;html=1;align=center;verticalAlign=middle;whiteSpace=wrap;rounded=0;" vertex="1" parent="T2Sw0P_CuasJY1bfyrww-252">
          <mxGeometry x="70" y="40" width="51.09" height="20" as="geometry" />
        </mxCell>
        <mxCell id="T2Sw0P_CuasJY1bfyrww-311" value="No" style="text;html=1;align=center;verticalAlign=middle;whiteSpace=wrap;rounded=0;" vertex="1" parent="T2Sw0P_CuasJY1bfyrww-252">
          <mxGeometry x="1.1368683772161603e-13" y="91" width="60" height="30" as="geometry" />
        </mxCell>
        <mxCell id="T2Sw0P_CuasJY1bfyrww-313" value="demandTo&lt;br&gt;SupplyConversion&lt;br&gt;Function.py" style="rounded=0;whiteSpace=wrap;html=1;" vertex="1" parent="T2Sw0P_CuasJY1bfyrww-252">
          <mxGeometry x="248.67000000000007" y="30.5" width="120" height="60" as="geometry" />
        </mxCell>
        <mxCell id="T2Sw0P_CuasJY1bfyrww-263" value="" style="group" vertex="1" connectable="0" parent="1">
          <mxGeometry x="-599" y="-200" width="199" height="80" as="geometry" />
        </mxCell>
        <mxCell id="T2Sw0P_CuasJY1bfyrww-257" value="" style="rounded=0;whiteSpace=wrap;html=1;fillColor=#d5e8d4;strokeColor=#82b366;" vertex="1" parent="T2Sw0P_CuasJY1bfyrww-263">
          <mxGeometry x="0.1645864661654339" width="198.83541353383453" height="80" as="geometry" />
        </mxCell>
        <mxCell id="T2Sw0P_CuasJY1bfyrww-258" value="FTP Actual Download" style="text;html=1;align=center;verticalAlign=middle;whiteSpace=wrap;rounded=0;" vertex="1" parent="T2Sw0P_CuasJY1bfyrww-263">
          <mxGeometry width="120" height="20" as="geometry" />
        </mxCell>
        <mxCell id="T2Sw0P_CuasJY1bfyrww-260" value="ftp_actual&lt;div&gt;_download.py&lt;/div&gt;" style="rounded=0;whiteSpace=wrap;html=1;" vertex="1" parent="T2Sw0P_CuasJY1bfyrww-263">
          <mxGeometry x="39" y="20" width="90.67" height="50" as="geometry" />
        </mxCell>
        <mxCell id="T2Sw0P_CuasJY1bfyrww-253" style="edgeStyle=orthogonalEdgeStyle;rounded=0;orthogonalLoop=1;jettySize=auto;html=1;exitX=0.25;exitY=1;exitDx=0;exitDy=0;entryX=0.999;entryY=0.711;entryDx=0;entryDy=0;entryPerimeter=0;" edge="1" parent="1" source="T2Sw0P_CuasJY1bfyrww-227" target="T2Sw0P_CuasJY1bfyrww-172">
          <mxGeometry relative="1" as="geometry" />
        </mxCell>
        <mxCell id="T2Sw0P_CuasJY1bfyrww-265" style="edgeStyle=orthogonalEdgeStyle;rounded=0;orthogonalLoop=1;jettySize=auto;html=1;entryX=1.024;entryY=0.803;entryDx=0;entryDy=0;entryPerimeter=0;" edge="1" parent="1" source="T2Sw0P_CuasJY1bfyrww-257" target="T2Sw0P_CuasJY1bfyrww-172">
          <mxGeometry relative="1" as="geometry">
            <Array as="points" />
          </mxGeometry>
        </mxCell>
        <mxCell id="T2Sw0P_CuasJY1bfyrww-262" value="" style="group" connectable="0" vertex="1" parent="1">
          <mxGeometry x="-370" y="-90" width="189.13" height="90" as="geometry" />
        </mxCell>
        <mxCell id="T2Sw0P_CuasJY1bfyrww-266" value="" style="rhombus;whiteSpace=wrap;html=1;" vertex="1" parent="1">
          <mxGeometry x="-574.95" y="-420" width="34.72" height="25" as="geometry" />
        </mxCell>
        <mxCell id="T2Sw0P_CuasJY1bfyrww-268" style="edgeStyle=orthogonalEdgeStyle;rounded=0;orthogonalLoop=1;jettySize=auto;html=1;exitX=1;exitY=0.5;exitDx=0;exitDy=0;entryX=0.012;entryY=0.41;entryDx=0;entryDy=0;entryPerimeter=0;" edge="1" parent="1" source="T2Sw0P_CuasJY1bfyrww-266" target="T2Sw0P_CuasJY1bfyrww-221">
          <mxGeometry relative="1" as="geometry" />
        </mxCell>
        <mxCell id="T2Sw0P_CuasJY1bfyrww-272" value="Yes" style="text;html=1;align=center;verticalAlign=middle;whiteSpace=wrap;rounded=0;" vertex="1" parent="1">
          <mxGeometry x="-553.59" y="-400" width="60" height="5" as="geometry" />
        </mxCell>
        <mxCell id="T2Sw0P_CuasJY1bfyrww-277" value="No" style="text;html=1;align=center;verticalAlign=middle;whiteSpace=wrap;rounded=0;" vertex="1" parent="1">
          <mxGeometry x="-601.09" y="-360" width="51.09" height="20" as="geometry" />
        </mxCell>
        <mxCell id="T2Sw0P_CuasJY1bfyrww-278" value="is sunday ?" style="text;html=1;align=center;verticalAlign=middle;whiteSpace=wrap;rounded=0;" vertex="1" parent="1">
          <mxGeometry x="-596.5" y="-435" width="80" height="20" as="geometry" />
        </mxCell>
        <mxCell id="T2Sw0P_CuasJY1bfyrww-280" style="edgeStyle=orthogonalEdgeStyle;rounded=0;orthogonalLoop=1;jettySize=auto;html=1;exitX=0;exitY=0.5;exitDx=0;exitDy=0;entryX=0.999;entryY=0.521;entryDx=0;entryDy=0;entryPerimeter=0;startArrow=classic;startFill=1;endArrow=none;endFill=0;" edge="1" parent="1" source="T2Sw0P_CuasJY1bfyrww-266" target="T2Sw0P_CuasJY1bfyrww-172">
          <mxGeometry relative="1" as="geometry" />
        </mxCell>
        <mxCell id="T2Sw0P_CuasJY1bfyrww-281" value="" style="group" vertex="1" connectable="0" parent="1">
          <mxGeometry x="-390.66" y="-200" width="190" height="80" as="geometry" />
        </mxCell>
        <mxCell id="T2Sw0P_CuasJY1bfyrww-231" value="" style="rounded=0;whiteSpace=wrap;html=1;fillColor=#d5e8d4;strokeColor=#82b366;container=0;" vertex="1" parent="T2Sw0P_CuasJY1bfyrww-281">
          <mxGeometry width="190" height="80" as="geometry" />
        </mxCell>
        <mxCell id="T2Sw0P_CuasJY1bfyrww-233" value="Forecast Versions Consolidation" style="text;html=1;align=center;verticalAlign=middle;whiteSpace=wrap;rounded=0;container=0;" vertex="1" parent="T2Sw0P_CuasJY1bfyrww-281">
          <mxGeometry x="-1.05" y="10" width="179.95399989425266" height="20" as="geometry" />
        </mxCell>
        <mxCell id="T2Sw0P_CuasJY1bfyrww-234" value="ForecastVersions&lt;br&gt;ProductionCode.py" style="rounded=0;whiteSpace=wrap;html=1;container=0;" vertex="1" parent="T2Sw0P_CuasJY1bfyrww-281">
          <mxGeometry x="29.26399830804209" y="32" width="119.32638925606726" height="42.664" as="geometry" />
        </mxCell>
        <mxCell id="T2Sw0P_CuasJY1bfyrww-297" value="" style="group" vertex="1" connectable="0" parent="1">
          <mxGeometry x="-385" y="-470" width="185" height="130" as="geometry" />
        </mxCell>
        <mxCell id="T2Sw0P_CuasJY1bfyrww-245" value="" style="rounded=0;whiteSpace=wrap;html=1;fillColor=#d5e8d4;strokeColor=#82b366;container=0;" vertex="1" parent="T2Sw0P_CuasJY1bfyrww-297">
          <mxGeometry width="185" height="130" as="geometry" />
        </mxCell>
        <mxCell id="T2Sw0P_CuasJY1bfyrww-246" value="Retention Model" style="text;html=1;align=center;verticalAlign=middle;whiteSpace=wrap;rounded=0;container=0;" vertex="1" parent="T2Sw0P_CuasJY1bfyrww-297">
          <mxGeometry width="112.992" height="28.88888888888889" as="geometry" />
        </mxCell>
        <mxCell id="T2Sw0P_CuasJY1bfyrww-289" style="edgeStyle=orthogonalEdgeStyle;rounded=0;orthogonalLoop=1;jettySize=auto;html=1;exitX=1;exitY=0.5;exitDx=0;exitDy=0;entryX=0;entryY=0.5;entryDx=0;entryDy=0;" edge="1" parent="T2Sw0P_CuasJY1bfyrww-297" source="T2Sw0P_CuasJY1bfyrww-282" target="T2Sw0P_CuasJY1bfyrww-288">
          <mxGeometry relative="1" as="geometry" />
        </mxCell>
        <mxCell id="T2Sw0P_CuasJY1bfyrww-282" value="" style="rhombus;whiteSpace=wrap;html=1;container=0;" vertex="1" parent="T2Sw0P_CuasJY1bfyrww-297">
          <mxGeometry x="22.112000000000023" y="55.27999999999997" width="36.25600000000001" height="30" as="geometry" />
        </mxCell>
        <mxCell id="T2Sw0P_CuasJY1bfyrww-284" value="Is new file ?" style="text;html=1;align=center;verticalAlign=middle;whiteSpace=wrap;rounded=0;container=0;" vertex="1" parent="T2Sw0P_CuasJY1bfyrww-297">
          <mxGeometry x="4.4879999999999995" y="28.889999999999986" width="75.504" height="30" as="geometry" />
        </mxCell>
        <mxCell id="T2Sw0P_CuasJY1bfyrww-288" value="Retention_&lt;div&gt;Model.py&lt;/div&gt;" style="rounded=0;whiteSpace=wrap;html=1;container=0;" vertex="1" parent="T2Sw0P_CuasJY1bfyrww-297">
          <mxGeometry x="102.94" y="40.27999999999997" width="77" height="60" as="geometry" />
        </mxCell>
        <mxCell id="T2Sw0P_CuasJY1bfyrww-290" value="Yes" style="text;html=1;align=center;verticalAlign=middle;whiteSpace=wrap;rounded=0;container=0;" vertex="1" parent="T2Sw0P_CuasJY1bfyrww-297">
          <mxGeometry x="44" y="65.27999999999997" width="66" height="30" as="geometry" />
        </mxCell>
        <mxCell id="T2Sw0P_CuasJY1bfyrww-295" value="No" style="text;html=1;align=center;verticalAlign=middle;whiteSpace=wrap;rounded=0;container=0;" vertex="1" parent="T2Sw0P_CuasJY1bfyrww-297">
          <mxGeometry x="44" y="95.27999999999997" width="33" height="14.72" as="geometry" />
        </mxCell>
        <mxCell id="T2Sw0P_CuasJY1bfyrww-293" style="edgeStyle=orthogonalEdgeStyle;rounded=0;orthogonalLoop=1;jettySize=auto;html=1;exitX=0.5;exitY=1;exitDx=0;exitDy=0;" edge="1" parent="1" source="T2Sw0P_CuasJY1bfyrww-282">
          <mxGeometry relative="1" as="geometry">
            <mxPoint x="-656" y="-324" as="targetPoint" />
            <Array as="points">
              <mxPoint x="-345" y="-324" />
            </Array>
          </mxGeometry>
        </mxCell>
        <mxCell id="T2Sw0P_CuasJY1bfyrww-294" style="edgeStyle=orthogonalEdgeStyle;rounded=0;orthogonalLoop=1;jettySize=auto;html=1;exitX=0;exitY=0.5;exitDx=0;exitDy=0;entryX=1.018;entryY=0.623;entryDx=0;entryDy=0;entryPerimeter=0;startArrow=classic;startFill=1;endArrow=none;endFill=0;" edge="1" parent="1" source="T2Sw0P_CuasJY1bfyrww-282" target="T2Sw0P_CuasJY1bfyrww-172">
          <mxGeometry relative="1" as="geometry">
            <Array as="points">
              <mxPoint x="-390" y="-400" />
              <mxPoint x="-390" y="-335" />
              <mxPoint x="-654" y="-335" />
            </Array>
          </mxGeometry>
        </mxCell>
        <mxCell id="T2Sw0P_CuasJY1bfyrww-301" style="edgeStyle=orthogonalEdgeStyle;rounded=0;orthogonalLoop=1;jettySize=auto;html=1;exitX=0;exitY=0.5;exitDx=0;exitDy=0;entryX=1.008;entryY=0.648;entryDx=0;entryDy=0;entryPerimeter=0;" edge="1" parent="1" source="T2Sw0P_CuasJY1bfyrww-193" target="T2Sw0P_CuasJY1bfyrww-183">
          <mxGeometry relative="1" as="geometry" />
        </mxCell>
        <mxCell id="T2Sw0P_CuasJY1bfyrww-319" value="" style="endArrow=classic;html=1;rounded=0;exitX=1.005;exitY=0.917;exitDx=0;exitDy=0;exitPerimeter=0;entryX=0;entryY=0.5;entryDx=0;entryDy=0;" edge="1" parent="1" source="T2Sw0P_CuasJY1bfyrww-172" target="T2Sw0P_CuasJY1bfyrww-302">
          <mxGeometry width="50" height="50" relative="1" as="geometry">
            <mxPoint x="-620" as="sourcePoint" />
            <mxPoint x="-570" y="-50" as="targetPoint" />
          </mxGeometry>
        </mxCell>
        <mxCell id="T2Sw0P_CuasJY1bfyrww-320" style="edgeStyle=orthogonalEdgeStyle;rounded=0;orthogonalLoop=1;jettySize=auto;html=1;exitX=0.5;exitY=1;exitDx=0;exitDy=0;entryX=1.005;entryY=0.951;entryDx=0;entryDy=0;entryPerimeter=0;startArrow=classic;startFill=1;endArrow=none;endFill=0;" edge="1" parent="1" source="T2Sw0P_CuasJY1bfyrww-302" target="T2Sw0P_CuasJY1bfyrww-172">
          <mxGeometry relative="1" as="geometry" />
        </mxCell>
        <mxCell id="T2Sw0P_CuasJY1bfyrww-321" style="edgeStyle=orthogonalEdgeStyle;rounded=0;orthogonalLoop=1;jettySize=auto;html=1;exitX=0.5;exitY=1;exitDx=0;exitDy=0;entryX=0.993;entryY=0.584;entryDx=0;entryDy=0;entryPerimeter=0;" edge="1" parent="1" source="T2Sw0P_CuasJY1bfyrww-266" target="T2Sw0P_CuasJY1bfyrww-172">
          <mxGeometry relative="1" as="geometry" />
        </mxCell>
        <mxCell id="T2Sw0P_CuasJY1bfyrww-322" style="edgeStyle=orthogonalEdgeStyle;rounded=0;orthogonalLoop=1;jettySize=auto;html=1;exitX=0;exitY=0.5;exitDx=0;exitDy=0;entryX=0.999;entryY=0.282;entryDx=0;entryDy=0;entryPerimeter=0;" edge="1" parent="1" source="T2Sw0P_CuasJY1bfyrww-202" target="T2Sw0P_CuasJY1bfyrww-172">
          <mxGeometry relative="1" as="geometry">
            <Array as="points">
              <mxPoint x="-622" y="-670" />
              <mxPoint x="-622" y="-671" />
            </Array>
          </mxGeometry>
        </mxCell>
        <mxCell id="T2Sw0P_CuasJY1bfyrww-323" style="edgeStyle=orthogonalEdgeStyle;rounded=0;orthogonalLoop=1;jettySize=auto;html=1;exitX=0.5;exitY=1;exitDx=0;exitDy=0;entryX=1.005;entryY=0.743;entryDx=0;entryDy=0;entryPerimeter=0;" edge="1" parent="1" source="T2Sw0P_CuasJY1bfyrww-227" target="T2Sw0P_CuasJY1bfyrww-172">
          <mxGeometry relative="1" as="geometry">
            <Array as="points">
              <mxPoint x="-296" y="-219" />
            </Array>
          </mxGeometry>
        </mxCell>
        <mxCell id="T2Sw0P_CuasJY1bfyrww-325" style="edgeStyle=orthogonalEdgeStyle;rounded=0;orthogonalLoop=1;jettySize=auto;html=1;exitX=0.5;exitY=0;exitDx=0;exitDy=0;" edge="1" parent="1" source="T2Sw0P_CuasJY1bfyrww-231" target="T2Sw0P_CuasJY1bfyrww-172">
          <mxGeometry relative="1" as="geometry">
            <Array as="points">
              <mxPoint x="-296" y="-206" />
            </Array>
          </mxGeometry>
        </mxCell>
      </root>
    </mxGraphModel>
  </diagram>
</mxfile>
